<svg width="668" height="179" fill="none" xmlns="http://www.w3.org/2000/svg"><path d="M164.912 51.864c1.6-2.944 3.968-5.184 7.104-6.72 3.136-1.536 6.944-2.304 11.424-2.304v8.928c-.512-.064-1.216-.096-2.112-.096-4.992 0-8.928 1.504-11.808 4.512-2.816 2.944-4.224 7.168-4.224 12.672V94.2h-9.216V43.32h8.832v8.544zm38.719 0c1.6-2.944 3.968-5.184 7.104-6.72 3.136-1.536 6.944-2.304 11.424-2.304v8.928c-.512-.064-1.216-.096-2.112-.096-4.992 0-8.928 1.504-11.808 4.512-2.816 2.944-4.224 7.168-4.224 12.672V94.2h-9.216V43.32h8.832v8.544zm51.21 42.912c-5.056 0-9.6-1.12-13.632-3.36-4.032-2.24-7.2-5.312-9.504-9.216-2.24-3.968-3.36-8.448-3.36-13.44 0-4.992 1.12-9.44 3.36-13.344 2.304-3.968 5.472-7.04 9.504-9.216 4.032-2.24 8.576-3.36 13.632-3.36 5.056 0 9.568 1.12 13.536 3.36 4.032 2.176 7.168 5.248 9.408 9.216 2.304 3.904 3.456 8.352 3.456 13.344 0 4.992-1.152 9.472-3.456 13.44-2.24 3.904-5.376 6.976-9.408 9.216-3.968 2.24-8.48 3.36-13.536 3.36zm0-8.064c3.264 0 6.176-.736 8.736-2.208 2.624-1.536 4.672-3.648 6.144-6.336 1.472-2.752 2.208-5.888 2.208-9.408 0-3.52-.736-6.624-2.208-9.312-1.472-2.752-3.52-4.864-6.144-6.336-2.56-1.472-5.472-2.208-8.736-2.208-3.264 0-6.208.736-8.832 2.208-2.56 1.472-4.608 3.584-6.144 6.336-1.472 2.688-2.208 5.792-2.208 9.312 0 3.52.736 6.656 2.208 9.408 1.536 2.688 3.584 4.8 6.144 6.336 2.624 1.472 5.568 2.208 8.832 2.208zM369.572 43.32L350.564 94.2h-8.832l-14.688-38.592-14.88 38.592h-8.832L284.42 43.32h8.736l14.784 40.512L323.3 43.32h7.776l15.072 40.704 15.168-40.704h8.256zm73-.48c6.4 0 11.456 1.856 15.168 5.568 3.776 3.712 5.664 9.216 5.664 16.512V94.2h-9.216V65.976c0-4.928-1.152-8.64-3.456-11.136-2.24-2.496-5.472-3.744-9.696-3.744-4.672 0-8.384 1.472-11.136 4.416-2.752 2.88-4.128 7.04-4.128 12.48V94.2h-9.216V65.976c0-4.928-1.152-8.64-3.456-11.136-2.24-2.496-5.472-3.744-9.696-3.744-4.672 0-8.384 1.472-11.136 4.416-2.752 2.88-4.128 7.04-4.128 12.48V94.2h-9.216V43.32h8.832v7.584c1.856-2.624 4.288-4.608 7.296-5.952 3.008-1.408 6.432-2.112 10.272-2.112 3.968 0 7.488.8 10.56 2.4 3.072 1.6 5.44 3.936 7.104 7.008 1.92-2.944 4.576-5.248 7.968-6.912 3.456-1.664 7.328-2.496 11.616-2.496zm84.054 26.208c0 .704-.064 1.632-.192 2.784h-41.28c.576 4.48 2.528 8.096 5.856 10.848 3.392 2.688 7.584 4.032 12.576 4.032 6.08 0 10.976-2.048 14.688-6.144l5.088 5.952c-2.304 2.688-5.184 4.736-8.64 6.144-3.392 1.408-7.2 2.112-11.424 2.112-5.376 0-10.144-1.088-14.304-3.264-4.16-2.24-7.392-5.344-9.696-9.312-2.24-3.968-3.36-8.448-3.36-13.44 0-4.928 1.088-9.376 3.264-13.344 2.24-3.968 5.28-7.04 9.12-9.216 3.904-2.24 8.288-3.36 13.152-3.36 4.864 0 9.184 1.12 12.96 3.36 3.84 2.176 6.816 5.248 8.928 9.216 2.176 3.968 3.264 8.512 3.264 13.632zm-25.152-18.432c-4.416 0-8.128 1.344-11.136 4.032-2.944 2.688-4.672 6.208-5.184 10.56h32.64c-.512-4.288-2.272-7.776-5.28-10.464-2.944-2.752-6.624-4.128-11.04-4.128zm66.558 40.608c-1.344 1.152-3.008 2.048-4.992 2.688a21.924 21.924 0 01-6.144.864c-5.12 0-9.088-1.376-11.904-4.128-2.816-2.752-4.224-6.688-4.224-11.808V50.904h-8.64V43.32h8.64V32.184h9.216V43.32h14.592v7.584h-14.592v27.552c0 2.752.672 4.864 2.016 6.336 1.408 1.472 3.392 2.208 5.952 2.208 2.816 0 5.216-.8 7.2-2.4l2.88 6.624z" fill="#432166"/><path d="M146.424 126.626L98.387 74.5 43.55 131.718 98.387.756l48.037 125.87z" fill="#FC3"/></svg>