<svg xmlns="http://www.w3.org/2000/svg" xmlns:xlink="http://www.w3.org/1999/xlink" width="3390.125" height="809"><defs><linearGradient id="a" x1=".5" y1="1" x2=".5" gradientUnits="objectBoundingBox"><stop offset="0" stop-color="#008aef"/><stop offset="1" stop-color="#733ac4"/></linearGradient><linearGradient id="c" y1="0" y2="1" xlink:href="#a"/><linearGradient id="b" x1=".5" y1="1" x2=".5" gradientUnits="objectBoundingBox"><stop offset="0" stop-color="#ffd000"/><stop offset="1" stop-color="#ff4537"/></linearGradient><linearGradient id="d" y1="0" y2="1" xlink:href="#b"/></defs><g data-name="Group 61"><g data-name="Group 21" fill-rule="evenodd"><path data-name="Path 7" d="M46.983 62.882a14.954 14.954 0 010-21.455l37.558-36.78a15.033 15.033 0 0121.643 0 14.954 14.954 0 010 21.455l-37.876 36.78a14.663 14.663 0 01-21.325 0z" transform="translate(125.211 555.706)" fill="url(#a)"/><path data-name="Path 8" d="M46.983 100.42a14.954 14.954 0 010-21.455l71.932-67.43c6.047-6.743 15.914-6.743 21.643 0 6.047 6.13 6.047 15.325 0 18.39l-72.25 70.495a14.663 14.663 0 01-21.325 0z" transform="translate(90.836 487.517)" fill="url(#a)"/><path data-name="Path 9" d="M47.222 142.987a14.439 14.439 0 010-21.455L157.03 16.4c6.047-5.517 15.914-5.517 21.643 0a14.24 14.24 0 010 20.842L70.139 142.987c-6.048 6.13-16.551 6.13-22.917 0z" transform="translate(52.721 417.366)" fill="url(#a)"/><path data-name="Path 10" d="M97.572 62.882a14.954 14.954 0 000-21.455L59.7 4.647a14.663 14.663 0 00-21.325 0 14.954 14.954 0 000 21.455l37.558 36.78a15.035 15.035 0 0021.639 0z" transform="translate(174.881 555.706)" fill="url(#a)"/><path data-name="Path 11" d="M124.736 100.42a14.954 14.954 0 000-21.455l-72.25-67.43a13.769 13.769 0 00-21.325 0c-6.047 6.13-6.047 15.325 0 18.39l71.932 70.495a15.035 15.035 0 0021.643 0z" transform="translate(182.092 487.517)" fill="url(#a)"/><path data-name="Path 12" d="M153.661 142.987a14.954 14.954 0 000-21.455L44.808 16.4a15.808 15.808 0 00-21.325 0 14.24 14.24 0 000 20.842l108.535 105.745a15.035 15.035 0 0021.643 0z" transform="translate(189.77 417.366)" fill="url(#a)"/><g data-name="Group 1" transform="translate(96.22 186)" fill="url(#c)"><path data-name="Path 30" d="M175.773 4.6a14.954 14.954 0 010 21.455l-37.558 36.777a15.033 15.033 0 01-21.643 0 14.954 14.954 0 010-21.455L154.448 4.6a14.663 14.663 0 0121.325 0z"/><path data-name="Path 27" d="M210.147 35.25a14.954 14.954 0 010 21.455l-71.932 67.428c-6.047 6.743-15.914 6.743-21.643 0-6.047-6.13-6.047-15.325 0-18.39l72.25-70.493a14.663 14.663 0 0121.325 0z"/><path data-name="Path 26" d="M248.023 62.835a14.439 14.439 0 010 21.455L138.215 189.417c-6.047 5.517-15.914 5.517-21.643 0a14.24 14.24 0 010-20.842l108.535-105.74c6.047-6.132 16.55-6.132 22.916 0z"/><path data-name="Path 29" d="M75.513 4.6a14.954 14.954 0 000 21.455l37.876 36.78a14.663 14.663 0 0021.325 0 14.954 14.954 0 000-21.455L97.156 4.6a15.035 15.035 0 00-21.643 0z"/><path data-name="Path 28" d="M41.139 35.25a14.954 14.954 0 000 21.455l72.25 67.43a13.769 13.769 0 0021.325 0c6.047-6.13 6.047-15.325 0-18.39L62.782 35.25a15.035 15.035 0 00-21.643 0z"/><path data-name="Path 25" d="M4.536 62.835a14.954 14.954 0 000 21.455l108.853 105.13a15.808 15.808 0 0021.325 0 14.24 14.24 0 000-20.842L26.179 62.835a15.035 15.035 0 00-21.643 0z"/></g><g data-name="Group 4"><path data-name="Path 19" d="M63.768 4.368a15.512 15.512 0 00-21.58 0L4.536 40.841a13.89 13.89 0 000 20.535 15.2 15.2 0 0021.325 0l37.907-36.167a14.476 14.476 0 000-20.841z" transform="rotate(-90 418.02 40.345)" fill="url(#b)"/><path data-name="Path 21" d="M4.3 129.113a15.035 15.035 0 0021.643 0L134.793 24.9a14.416 14.416 0 000-20.535 15.591 15.591 0 00-21.643 0L4.3 107.658a15.54 15.54 0 000 21.455z" transform="rotate(-90 387.384 140.411)" fill="url(#b)"/><path data-name="Path 22" d="M4.428 4.367a15.512 15.512 0 0121.58 0l37.653 36.474a13.89 13.89 0 010 20.535 15.2 15.2 0 01-21.325 0L4.428 24.9a14.119 14.119 0 010-20.533z" transform="rotate(90 46.395 397.026)" fill="url(#d)"/><path data-name="Path 23" d="M4.476 4.368a15.59 15.59 0 0121.643 0l71.933 69.575a13.89 13.89 0 010 20.535 15.2 15.2 0 01-21.325 0L4.476 25.21a14.368 14.368 0 010-20.842z" transform="rotate(90 47.359 364.242)" fill="url(#d)"/><path data-name="Path 24" d="M4.3 4.368a15.59 15.59 0 0121.643 0l108.85 104.823a14.416 14.416 0 010 20.535 15.59 15.59 0 01-21.643 0L4.3 25.21a14.786 14.786 0 010-20.842z" transform="rotate(90 49.933 330.941)" fill="url(#d)"/><path data-name="Path 20" d="M98.111 4.368a15.591 15.591 0 00-21.643 0L4.536 73.943a13.89 13.89 0 000 20.535 15.2 15.2 0 0021.325 0l72.25-69.269a14.342 14.342 0 000-20.841z" transform="rotate(-90 402.438 89.678)" fill="url(#b)"/></g><g data-name="Group 5"><path data-name="Path 19" d="M63.768 4.368a15.512 15.512 0 00-21.58 0L4.536 40.841a13.89 13.89 0 000 20.535 15.2 15.2 0 0021.325 0l37.907-36.167a14.476 14.476 0 000-20.841z" transform="rotate(90 -142.347 208.091)" fill="url(#b)"/><path data-name="Path 21" d="M4.3 129.113a15.035 15.035 0 0021.643 0L134.793 24.9a14.416 14.416 0 000-20.535 15.591 15.591 0 00-21.643 0L4.3 107.658a15.54 15.54 0 000 21.455z" transform="rotate(90 -42.28 238.728)" fill="url(#b)"/><path data-name="Path 22" d="M4.428 4.367a15.512 15.512 0 0121.58 0l37.653 36.474a13.89 13.89 0 010 20.535 15.2 15.2 0 01-21.325 0L4.428 24.9a14.119 14.119 0 010-20.533z" transform="matrix(0 -1 1 0 0 458.173)" fill="url(#d)"/><path data-name="Path 23" d="M4.476 4.368a15.59 15.59 0 0121.643 0l71.933 69.575a13.89 13.89 0 010 20.535 15.2 15.2 0 01-21.325 0L4.476 25.21a14.368 14.368 0 010-20.842z" transform="rotate(-90 261.87 230.05)" fill="url(#d)"/><path data-name="Path 24" d="M4.3 4.368a15.59 15.59 0 0121.643 0l108.85 104.823a14.416 14.416 0 010 20.535 15.59 15.59 0 01-21.643 0L4.3 25.21a14.786 14.786 0 010-20.842z" transform="rotate(-90 295.17 232.625)" fill="url(#d)"/><path data-name="Path 20" d="M98.111 4.368a15.591 15.591 0 00-21.643 0L4.536 73.943a13.89 13.89 0 000 20.535 15.2 15.2 0 0021.325 0l72.25-69.269a14.342 14.342 0 000-20.841z" transform="rotate(90 -93.013 223.673)" fill="url(#b)"/></g></g><text data-name="Arrowmet" transform="translate(490.125 620)" fill="#733ac4" font-size="575" font-family="SegoeUI-Semibold, Segoe UI" font-weight="600"><tspan y="0" font-family="AzoSans-Medium, Azo Sans" font-weight="500">Arrowmet</tspan></text></g></svg>