<svg version="1.1" id="illu-02" xmlns="http://www.w3.org/2000/svg" x="0" y="0" viewBox="0 0 345.7 319.3" xml:space="preserve"><style>#illu-02 .st0{opacity:.1}#illu-02 .st1{fill:#173d7a}#illu-02 .st2{fill:#396caa}#illu-02 .st3{fill:#274f89}#illu-02 .st4{fill:#d4ecff}#illu-02 .st5{fill:#fff}#illu-02 .st6{fill:#5793ce}#illu-02 .st8{fill:#b2d3ea}#illu-02 .st9{fill:#c13d1a}#illu-02 .st11{fill:#ffc2b0}#illu-02 .st12{fill:#ea9c92}#illu-02 .st13{fill:#ff2c9c}#illu-02 .st14{fill:#d3008d}</style><path class="st0" d="M192.6 295.7L58.2 218.2c-3.8-2.1-3.3-6 1.1-8.6l91.5-52.8c4.4-2.6 11-2.8 14.8-.6L300 233.7c3.8 2.1 3.3 6-1.1 8.6l-91.5 52.9c-4.4 2.4-11.1 2.8-14.8.5z"/><path class="st1" d="M304.9 81.2L168.3 2.4c-1.7-1-3.3-1.2-4.7-.6l-.2.1h-.1L158.9 4l4.8 2.4v112.4c0 5.6 3.4 12.1 7.7 14.6L304.3 210l.8 6.2 4.8-2.4c1.6-1 2.6-3.1 2.6-6.1V95.6c.2-5.4-3.3-11.9-7.6-14.4z"/><path class="st2" d="M304.9 81.2L168.3 2.4c-1.7-1-3.3-1.2-4.7-.6l-.2.1h-.1L158.9 4l4.8 2.4v74.1l62.1 49.1 84.4-42.5c-1.2-2.5-3.2-4.7-5.3-5.9z"/><path class="st3" d="M307.2 82.9l-13.4 5.6 10.1 7.8 8.5-3.5c-.8-3.7-2.7-7.4-5.2-9.9z"/><path class="st4" d="M300.5 215.8L163.9 137c-4.3-2.5-7.7-9-7.7-14.6V10.2c0-5.6 3.4-8.2 7.7-5.7l136.5 78.8c4.3 2.5 7.7 9 7.7 14.6v112.2c.1 5.6-3.3 8.2-7.6 5.7z"/><path class="st5" d="M295.9 207.4l-127.5-73.6c-4-2.3-7.1-8.3-7.1-13.4V17.8c0-5.1 3.2-7.5 7.1-5.3l127.5 73.6c4 2.3 7.1 8.3 7.1 13.4v102.6c.1 5.3-3.2 7.6-7.1 5.3z"/><path class="st5" d="M295.9 207.4l-127.5-73.6c-4-2.3-7.1-8.3-7.1-13.4V17.8c0-5.1 3.2-7.5 7.1-5.3l127.5 73.6c4 2.3 7.1 8.3 7.1 13.4v102.6c.1 5.3-3.2 7.6-7.1 5.3z"/><path class="st1" d="M302.5 219.3l-18.3-2.5-118.5-68.4c-3.8-2.1-10.4-1.9-14.8.6l-84.1 48.5-11.2-1.5v6.3c-.1 1.5.8 2.9 2.6 3.9l134.4 77.5c3.8 2.1 10.4 1.9 14.8-.6l91.5-52.8c2.5-1.4 3.6-3.2 3.6-4.9v-6.1z"/><path class="st2" d="M213.4 176l-8.5-4.8h-92.6l-45.6 26.4-11.2-1.5v6.3c-.1 1.5.8 2.9 2.6 3.9l134.4 77.5c2 1.2 4.8 1.6 7.6 1.4L213.4 176z"/><path class="st6" d="M60.6 196.7l-4.9-.6v6.3c-.1 1.5.8 2.9 2.6 3.9l2.4 1.4v-11z"/><path class="st3" d="M193.9 284.4c3.6 1.4 8.8 1.1 12.5-.8v-14h-12.5v14.8z"/><path class="st4" d="M192.6 277.5L58.2 199.9c-3.8-2.1-3.3-6 1.1-8.6l91.5-52.8c4.4-2.6 11-2.8 14.8-.6L300 215.4c3.8 2.1 3.3 6-1.1 8.6l-91.5 52.9c-4.4 2.5-11.1 2.8-14.8.6z"/><path class="st5" d="M298.9 221.8l-91.5 52.8c-4.4 2.6-11 2.8-14.8.6L58.2 197.7c-1.3-.8-2-1.6-2.4-2.6-.6 1.8.2 3.6 2.4 4.9l134.4 77.4c3.8 2.1 10.4 1.9 14.8-.6l91.5-52.8c3-1.7 4.1-4 3.4-6-.4 1.5-1.6 2.7-3.4 3.8z"/><path class="st1" d="M115.4 174.3l-6.1-3.5c-.5-.3-.4-.8.1-1.1l7.2-4.2c.5-.3 1.4-.3 1.9-.1l6.1 3.5c.5.3.4.8-.1 1.1l-7.2 4.2c-.6.3-1.4.3-1.9.1zm9.3 5.4l-6.1-3.5c-.5-.3-.4-.8.1-1.1l7.2-4.2c.5-.3 1.4-.3 1.9-.1l6.1 3.5c.5.3.4.8-.1 1.1l-7.2 4.2c-.5.4-1.4.4-1.9.1zm9.4 5.4l-6.1-3.5c-.5-.3-.4-.8.1-1.1l7.2-4.2c.5-.3 1.4-.3 1.9-.1l6.1 3.5c.5.3.4.8-.1 1.1L136 185c-.5.3-1.3.5-1.9.1zm13-4.5l-6.1-3.5c-.5-.3-.4-.8.1-1.1l6-3.4c.5-.3 1.4-.3 1.9-.1l6.1 3.5c.5.3.4.8-.1 1.1l-6 3.4c-.5.3-1.4.4-1.9.1zm9.4 5.5l-6.1-3.5c-.5-.3-.4-.8.1-1.1l6-3.4c.5-.3 1.4-.3 1.9-.1l6.1 3.5c.5.3.4.8-.1 1.1l-6 3.4c-.6.3-1.4.3-1.9.1zm9.4 5.4l-6.1-3.5c-.5-.3-.4-.8.1-1.1l6-3.4c.5-.3 1.4-.3 1.9-.1l6.1 3.5c.5.3.4.8-.1 1.1l-6 3.4c-.5.4-1.4.4-1.9.1zm9.4 5.4l-6.1-3.5c-.5-.3-.4-.8.1-1.1l6-3.4c.5-.3 1.4-.3 1.9-.1l6.1 3.5c.5.3.4.8-.1 1.1l-6 3.4c-.6.3-1.5.3-1.9.1zm9.3 5.4l-6.1-3.5c-.5-.3-.4-.8.1-1.1l6-3.4c.5-.3 1.4-.3 1.9-.1l6.1 3.5c.5.3.4.8-.1 1.1l-6 3.4c-.5.4-1.3.4-1.9.1zm9.5 5.5l-6.1-3.5c-.5-.3-.4-.8.1-1.1l6-3.4c.5-.3 1.4-.3 1.9-.1l6.1 3.5c.5.3.4.8-.1 1.1l-6 3.4c-.6.3-1.5.3-1.9.1zm9.3 5.3l-6.1-3.5c-.5-.3-.4-.8.1-1.1l6-3.4c.5-.3 1.4-.3 1.9-.1l6.1 3.5c.5.3.4.8-.1 1.1l-6 3.4c-.5.4-1.3.4-1.9.1zm9.5 5.5l-6.1-3.5c-.5-.3-.4-.8.1-1.1l6-3.4c.5-.3 1.4-.3 1.9-.1l6.1 3.5c.5.3.4.8-.1 1.1l-6 3.4c-.7.3-1.5.4-1.9.1zm9.3 5.4l-6.1-3.5c-.5-.3-.4-.8.1-1.1l6-3.4c.5-.3 1.4-.3 1.9-.1l6.1 3.5c.5.3.4.8-.1 1.1l-6 3.4c-.5.4-1.4.4-1.9.1zm9.4 5.4l-6.1-3.5c-.5-.3-.4-.8.1-1.1l6-3.4c.5-.3 1.4-.3 1.9-.1l6.1 3.5c.5.3.4.8-.1 1.1l-6 3.4c-.6.3-1.4.4-1.9.1z"/><path class="st2" d="M160.9 178.1l-6.1-3.5c-.5-.3-.4-.8.1-1.1l6-3.4c.5-.3 1.4-.3 1.9-.1l6.1 3.5c.5.3.4.8-.1 1.1l-6 3.4c-.5.4-1.3.4-1.9.1zm-9.5-5.5l-6.1-3.5c-.5-.3-.4-.8.1-1.1l6-3.4c.5-.3 1.4-.3 1.9-.1l6.1 3.5c.5.3.4.8-.1 1.1l-6 3.4c-.5.3-1.4.4-1.9.1z"/><path class="st1" d="M141.9 167.1l-13.1-7.5c-.5-.3-.4-.8.1-1.1l6-3.4c.5-.3 1.4-.3 1.9-.1l13.1 7.5c.5.3.4.8-.1 1.1l-6 3.4c-.6.3-1.4.3-1.9.1zm6.6-6.7l-10.6-6.1c-.5-.3-.4-.8.1-1.1l6-3.4c.5-.3 1.4-.3 1.9-.1l10.6 6.1c.5.3.4.8-.1 1.1l-6 3.4c-.5.3-1.4.4-1.9.1z"/><path class="st2" d="M170.4 183.5l-6.1-3.5c-.5-.3-.4-.8.1-1.1l6-3.4c.5-.3 1.4-.3 1.9-.1l6.1 3.5c.5.3.4.8-.1 1.1l-6 3.4c-.6.3-1.5.3-1.9.1z"/><path class="st1" d="M179.7 188.9l-6.1-3.5c-.5-.3-.4-.8.1-1.1l6-3.4c.5-.3 1.4-.3 1.9-.1l6.1 3.5c.5.3.4.8-.1 1.1l-6 3.4c-.5.4-1.3.4-1.9.1zm9.5 5.5l-6.1-3.5c-.5-.3-.4-.8.1-1.1l6-3.4c.5-.3 1.4-.3 1.9-.1l6.1 3.5c.5.3.4.8-.1 1.1l-6 3.4c-.7.3-1.5.3-1.9.1zm9.3 5.3l-6.1-3.5c-.5-.3-.4-.8.1-1.1l6-3.4c.5-.3 1.4-.3 1.9-.1l6.1 3.5c.5.3.4.8-.1 1.1l-6 3.4c-.5.4-1.4.4-1.9.1zm9.4 5.5l-6.1-3.5c-.5-.3-.4-.8.1-1.1l6-3.4c.5-.3 1.4-.3 1.9-.1l6.1 3.5c.5.3.4.8-.1 1.1l-6.1 3.4c-.5.3-1.3.4-1.8.1zm9.4 5.4l-6.1-3.5c-.5-.3-.4-.8.1-1.1l6-3.4c.5-.3 1.4-.3 1.9-.1l6.1 3.5c.5.3.4.8-.1 1.1l-6 3.4c-.6.4-1.4.4-1.9.1zm9.4 5.4l-6.1-3.5c-.5-.3-.4-.8.1-1.1l6-3.4c.5-.3 1.4-.3 1.9-.1l6.1 3.5c.5.3.4.8-.1 1.1l-6 3.4c-.6.3-1.5.4-1.9.1zm9.3 5.5l-6.1-3.5c-.5-.3-.4-.8.1-1.1l6-3.4c.5-.3 1.4-.3 1.9-.1l6.1 3.5c.5.3.4.8-.1 1.1l-6 3.4c-.5.3-1.3.3-1.9.1zm9.5 5.4l-6.1-3.5c-.5-.3-.4-.8.1-1.1l6-3.4c.5-.3 1.4-.3 1.9-.1l6.1 3.5c.5.3.4.8-.1 1.1l-6 3.4c-.7.3-1.5.4-1.9.1zm16.6 9.6l-13.3-7.6c-.5-.3-.4-.8.1-1.1l6-3.4c.5-.3 1.4-.3 1.9-.1l13.3 7.6c.5.3.4.8-.1 1.1l-6 3.4c-.5.3-1.4.4-1.9.1zm18.3-10.5l-11.2-6.4c-.5-.3-.4-.8.1-1.1l6-3.4c.5-.3 1.4-.3 1.9-.1l11.2 6.4c.5.3.4.8-.1 1.1l-6 3.4c-.6.3-1.4.3-1.9.1zm-93.6-43.5l-6.1-3.5c-.5-.3-.4-.8.1-1.1l6-3.4c.5-.3 1.4-.3 1.9-.1l6.1 3.5c.5.3.4.8-.1 1.1l-6 3.4c-.6.3-1.5.4-1.9.1zm-9.7-5.6l-6.1-3.5c-.5-.3-.4-.8.1-1.1l6-3.4c.5-.3 1.4-.3 1.9-.1l6.1 3.5c.5.3.4.8-.1 1.1l-6 3.4c-.5.3-1.3.4-1.9.1z"/><path class="st2" d="M167.5 171.3l-6.1-3.5c-.5-.3-.4-.8.1-1.1l6-3.4c.5-.3 1.4-.3 1.9-.1l6.1 3.5c.5.3.4.8-.1 1.1l-6 3.4c-.5.4-1.4.4-1.9.1z"/><path class="st1" d="M157.9 165.8l-6.1-3.5c-.5-.3-.4-.8.1-1.1l6-3.4c.5-.3 1.4-.3 1.9-.1l6.1 3.5c.5.3.4.8-.1 1.1l-6 3.4c-.6.3-1.4.3-1.9.1zm38.2 22l-6.1-3.5c-.5-.3-.4-.8.1-1.1l6-3.4c.5-.3 1.4-.3 1.9-.1l6.1 3.5c.5.3.4.8-.1 1.1l-6 3.4c-.5.4-1.3.4-1.9.1zm9.5 5.5l-6.1-3.5c-.5-.3-.4-.8.1-1.1l6-3.4c.5-.3 1.4-.3 1.9-.1l6.1 3.5c.5.3.4.8-.1 1.1l-6 3.4c-.7.3-1.5.4-1.9.1zm9.3 5.3l-6.1-3.5c-.5-.3-.4-.8.1-1.1l6-3.4c.5-.3 1.4-.3 1.9-.1l6.1 3.5c.5.3.4.8-.1 1.1l-6 3.4c-.5.5-1.4.5-1.9.1zm9.4 5.5l-6.1-3.5c-.5-.3-.4-.8.1-1.1l6-3.4c.5-.3 1.4-.3 1.9-.1l6.1 3.5c.5.3.4.8-.1 1.1l-6 3.4c-.6.3-1.4.4-1.9.1zm9.4 5.5l-6.1-3.5c-.5-.3-.4-.8.1-1.1l6-3.4c.5-.3 1.4-.3 1.9-.1l6.1 3.5c.5.3.4.8-.1 1.1l-6 3.4c-.5.3-1.4.3-1.9.1zm9.4 5.3l-6.1-3.5c-.5-.3-.4-.8.1-1.1l6-3.4c.5-.3 1.4-.3 1.9-.1l6.1 3.5c.5.3.4.8-.1 1.1l-6 3.4c-.6.4-1.4.5-1.9.1zm9.3 5.5l-6.1-3.5c-.5-.3-.4-.8.1-1.1l6-3.4c.5-.3 1.4-.3 1.9-.1l6.1 3.5c.5.3.4.8-.1 1.1l-6 3.4c-.5.3-1.3.3-1.9.1zm9.5 5.4l-6.1-3.5c-.5-.3-.4-.8.1-1.1l6-3.4c.5-.3 1.4-.3 1.9-.1l6.1 3.5c.5.3.4.8-.1 1.1l-6 3.4c-.5.3-1.4.4-1.9.1zm9.4 5.4l-6.1-3.5c-.5-.3-.4-.8.1-1.1l6-3.4c.5-.3 1.4-.3 1.9-.1l6.1 3.5c.5.3.4.8-.1 1.1l-6 3.4c-.6.4-1.5.4-1.9.1zM181.9 169l-6.1-3.5c-.5-.3-.4-.8.1-1.1l6-3.4c.5-.3 1.4-.3 1.9-.1l6.1 3.5c.5.3.4.8-.1 1.1l-6 3.4c-.7.4-1.5.5-1.9.1zm-9.4-5.3l-6.1-3.5c-.5-.3-.4-.8.1-1.1l6-3.4c.5-.3 1.4-.3 1.9-.1l6.1 3.5c.5.3.4.8-.1 1.1l-6 3.4c-.6.3-1.4.3-1.9.1zm-9.3-5.5l-6.1-3.5c-.5-.3-.4-.8.1-1.1l6-3.4c.5-.3 1.4-.3 1.9-.1l6.1 3.5c.5.3.4.8-.1 1.1l-6 3.4c-.6.4-1.5.4-1.9.1zm-9.4-5.4l-6.1-3.5c-.5-.3-.4-.8.1-1.1l6-3.4c.5-.3 1.4-.3 1.9-.1l6.1 3.5c.5.3.4.8-.1 1.1l-6 3.4c-.5.4-1.4.5-1.9.1zm9.6-5.5l-6.1-3.5c-.5-.3-.4-.8.1-1.1l2-1.2c.5-.3 1.4-.3 1.9-.1l6.1 3.5c.5.3.4.8-.1 1.1l-2 1.2c-.5.4-1.4.4-1.9.1zm12.2 7.1l-6.1-3.5c-.5-.3-.4-.8.1-1.1l2-1.2c.5-.3 1.4-.3 1.9-.1l6.1 3.5c.5.3.4.8-.1 1.1l-2 1.2c-.6.3-1.4.4-1.9.1zm9.3 5.3l-6.1-3.5c-.5-.3-.4-.8.1-1.1l2-1.2c.5-.3 1.4-.3 1.9-.1l6.1 3.5c.5.3.4.8-.1 1.1l-2 1.2c-.5.3-1.4.4-1.9.1zm9.3 5.4l-6.1-3.5c-.5-.3-.4-.8.1-1.1l2-1.2c.5-.3 1.4-.3 1.9-.1l6.1 3.5c.5.3.4.8-.1 1.1l-2 1.2c-.5.3-1.4.4-1.9.1zm9.3 5.3l-6.1-3.5c-.5-.3-.4-.8.1-1.1l2-1.2c.5-.3 1.4-.3 1.9-.1l6.1 3.5c.5.3.4.8-.1 1.1l-2 1.2c-.6.4-1.4.5-1.9.1zm51.9 30.1l-6.1-3.5c-.5-.3-.4-.8.1-1.1l2-1.2c.5-.3 1.4-.3 1.9-.1l6.1 3.5c.5.3.4.8-.1 1.1l-2 1.2c-.5.3-1.3.3-1.9.1zm9.4 5.3l-6.1-3.5c-.5-.3-.4-.8.1-1.1l2-1.2c.5-.3 1.4-.3 1.9-.1l6.1 3.5c.5.3.4.8-.1 1.1l-2 1.2c-.6.3-1.5.3-1.9.1zm9.2 5.4l-6.1-3.5c-.5-.3-.4-.8.1-1.1l2-1.2c.5-.3 1.4-.3 1.9-.1l6.1 3.5c.5.3.4.8-.1 1.1l-2 1.2c-.5.3-1.4.4-1.9.1zm9.3 5.4l-6.1-3.5c-.5-.3-.4-.8.1-1.1l2-1.2c.5-.3 1.4-.3 1.9-.1l6.1 3.5c.5.3.4.8-.1 1.1l-2 1.2c-.5.3-1.3.4-1.9.1zm-92.1-42.2l-6.1-3.5c-.5-.3-.4-.8.1-1.1l6-3.4c.5-.3 1.4-.3 1.9-.1l6.1 3.5c.5.3.4.8-.1 1.1l-6 3.4c-.5.4-1.4.4-1.9.1zm9.4 5.5l-6.1-3.5c-.5-.3-.4-.8.1-1.1l6-3.4c.5-.3 1.4-.3 1.9-.1l6.1 3.5c.5.3.4.8-.1 1.1l-6 3.4c-.6.3-1.4.4-1.9.1zm9.4 5.4l-6.1-3.5c-.5-.3-.4-.8.1-1.1l6-3.4c.5-.3 1.4-.3 1.9-.1l6.1 3.5c.5.3.4.8-.1 1.1l-6 3.4c-.5.4-1.4.4-1.9.1zm9.4 5.4l-6.1-3.5c-.5-.3-.4-.8.1-1.1l6-3.4c.5-.3 1.4-.3 1.9-.1l6.1 3.5c.5.3.4.8-.1 1.1l-6 3.4c-.6.3-1.5.4-1.9.1zm9.3 5.5l-6.1-3.5c-.5-.3-.4-.8.1-1.1l6-3.4c.5-.3 1.4-.3 1.9-.1l6.1 3.5c.5.3.4.8-.1 1.1l-6 3.4c-.5.3-1.3.3-1.9.1zm9.5 5.3l-6.1-3.5c-.5-.3-.4-.8.1-1.1l6-3.4c.5-.3 1.4-.3 1.9-.1l6.1 3.5c.5.3.4.8-.1 1.1l-6 3.4c-.6.4-1.5.5-1.9.1zm9.3 5.5l-6.1-3.5c-.5-.3-.4-.8.1-1.1l6-3.4c.5-.3 1.4-.3 1.9-.1l6.1 3.5c.5.3.4.8-.1 1.1l-6 3.4c-.5.3-1.4.3-1.9.1zm9.4 5.4l-6.1-3.5c-.5-.3-.4-.8.1-1.1l6-3.4c.5-.3 1.4-.3 1.9-.1l6.1 3.5c.5.3.4.8-.1 1.1l-6 3.4c-.6.3-1.4.4-1.9.1zm9.4 5.4l-6.1-3.5c-.5-.3-.4-.8.1-1.1l6-3.4c.5-.3 1.4-.3 1.9-.1l6.1 3.5c.5.3.4.8-.1 1.1l-6 3.4c-.5.4-1.4.4-1.9.1zm-128.7-42.6l-17.9-10.3c-.5-.3-.4-.8.1-1.1l6-3.4c.5-.3 1.4-.3 1.9-.1l17.9 10.3c.5.3.4.8-.1 1.1l-6 3.4c-.6.3-1.5.3-1.9.1zm115.3 66.5L235 231.4c-.5-.3-.4-.8.1-1.1l6-3.4c.5-.3 1.4-.3 1.9-.1l17.9 10.3c.5.3.4.8-.1 1.1l-6 3.4c-.5.4-1.4.4-1.9.1zm-37.6-9.7l-6.1-3.5c-.5-.3-.4-.8.1-1.1l7.2-4.2c.5-.3 1.4-.3 1.9-.1l6.1 3.5c.5.3.4.8-.1 1.1l-7.2 4.2c-.5.3-1.3.4-1.9.1zm-68.1-39.4l-9.8-5.6c-.5-.3-.4-.8.1-1.1l7.2-4.2c.5-.3 1.4-.3 1.9-.1l9.8 5.6c.5.3.4.8-.1 1.1l-7.2 4.2c-.6.4-1.5.5-1.9.1zm59.1 34.1l-9.8-5.6c-.5-.3-.4-.8.1-1.1l7.2-4.2c.5-.3 1.4-.3 1.9-.1l9.8 5.6c.5.3.4.8-.1 1.1l-7.2 4.2c-.6.5-1.5.5-1.9.1zm-45.6-26.2l-9.8-5.6c-.5-.3-.4-.8.1-1.1l7.2-4.2c.5-.3 1.4-.3 1.9-.1l9.8 5.6c.5.3.4.8-.1 1.1l-7.2 4.2c-.6.3-1.4.4-1.9.1z"/><path class="st1" d="M160.3 189.5l42.3 24.5c.5.3.5.8 0 1.1l-7.3 4.2c-.5.3-1.4.3-1.9 0l-42.3-24.5 9.2-5.3zm81.3 52.4l6.8 3.9c.4.2.3.6-.1.9l-2.9 1.7c-.4.2-1.2.3-1.6.1l-6.8-3.9c-.4-.2-.3-.6.1-.9l2.9-1.7c.4-.3 1.2-.5 1.6-.1zm-9.5-5.5l6.8 3.9c.4.2.3.6-.1.9l-2.9 1.7c-.4.2-1.2.3-1.6.1l-6.8-3.9c-.4-.2-.3-.6.1-.9l2.9-1.7c.5-.3 1.2-.3 1.6-.1zm-9.4-5.5l6.8 3.9c.4.2.3.6-.1.9l-2.9 1.7c-.4.2-1.2.3-1.6.1l-6.8-3.9c-.4-.2-.3-.6.1-.9l2.9-1.7c.5-.3 1.2-.3 1.6-.1zm14.6 2.5l6.8 3.9c.4.2.3.6-.1.9l-2.9 1.7c-.4.2-1.2.3-1.6.1l-6.8-3.9c-.4-.2-.3-.6.1-.9l2.9-1.7c.5-.3 1.2-.3 1.6-.1z"/><path class="st7" d="M223.5 106.3l-44.6-25.7c-1.1-.6-1.9-2.4-1.9-3.8V41.7c0-1.5.9-2.1 1.9-1.5L223.5 66c1.1.6 1.9 2.4 1.9 3.8v35.1c0 1.4-.9 2-1.9 1.4z" opacity=".4" fill="#d4ecff"/><path class="st8" d="M192.4 82.7l-.3-.2c-1.2-.6-2.1-2.5-2.1-4V61.8c0-1.5 1-2.3 2.1-1.6l.3.2c1.2.6 2.1 2.5 2.1 4v16.7c0 1.5-1 2.3-2.1 1.6zm8.9 5.2l-.3-.2c-1.2-.6-2.1-2.5-2.1-4v-9.8c0-1.5 1-2.3 2.1-1.6l.3.2c1.2.6 2.1 2.5 2.1 4v9.8c0 1.4-.9 2.2-2.1 1.6z"/><path class="st2" d="M210.3 93l-.3-.2c-1.2-.6-2.1-2.5-2.1-4V65.5c0-1.5 1-2.3 2.1-1.6l.3.2c1.2.6 2.1 2.5 2.1 4v23.3c0 1.6-.9 2.2-2.1 1.6z"/><path class="st8" d="M265.9 96.9l-27.7-16c-1.1-.6-1.8-2.1-1.8-3.5s.9-2 1.8-1.4l27.7 16c1.1.6 1.8 2.1 1.8 3.5.1 1.4-.7 2-1.8 1.4zm-17.8-.6l-9.9-5.7c-1.1-.6-1.8-2.1-1.8-3.5s.9-2 1.8-1.4l9.9 5.7c1.1.6 1.8 2.1 1.8 3.5.1 1.4-.8 2.1-1.8 1.4z"/><path class="st2" d="M264.7 106l-9.9-5.7c-1.1-.6-1.8-2.1-1.8-3.5s.9-2 1.8-1.4l9.9 5.7c1.1.6 1.8 2.1 1.8 3.5.1 1.3-.8 1.9-1.8 1.4z"/><path class="st8" d="M285.6 118l-14.2-8.2c-1.1-.6-1.8-2.1-1.8-3.5s.9-2 1.8-1.4l14.2 8.2c1.1.6 1.8 2.1 1.8 3.5s-.9 2-1.8 1.4zm-12.8 2.4l-34.6-19.9c-1.1-.6-1.8-2.1-1.8-3.5s.9-2 1.8-1.4l34.6 19.9c1.1.6 1.8 2.1 1.8 3.5.1 1.4-.7 2-1.8 1.4z"/><path class="st2" d="M287.4 138.4l-49.1-28.2c-1.1-.6-1.8-2.1-1.8-3.5s.9-2 1.8-1.4l49.1 28.2c1.1.6 1.8 2.1 1.8 3.5s-.7 2-1.8 1.4z"/><path class="st8" d="M291.6 111.7l-17.9-10.3c-1.1-.6-1.8-2.1-1.8-3.5s.9-2 1.8-1.4l17.9 10.3c1.1.6 1.8 2.1 1.8 3.5s-.9 1.9-1.8 1.4z"/><path class="st2" d="M185.5 112.4l-8.7-5v10.1l8.7 5z"/><path class="st4" d="M199.3 112l-8.8-5.1v18.5l8.8 5zm13.9 13.3l-8.8-5.1v13.2l8.8 5.1zm13.7 4.2l-8.7-5.1v17l8.7 5z"/><path class="st2" d="M240.7 138.5l-8.6-5.1v15.9l8.6 5.1z"/><path class="st1" d="M254.6 142.4l-8.8-5.1v20.1l8.8 5z"/><path class="st4" d="M268.4 148.2l-8.8-5v22.1l8.8 5z"/><path class="st2" d="M282.1 150.8l-8.6-5v27.4l8.6 5.1z"/><path transform="rotate(-14.373 340.38 108.753)" class="st6" d="M337.5 107.8h5.8v1.9h-5.8z"/><path transform="rotate(-14.373 337.613 111.441)" class="st6" d="M334.7 110.5h5.8v1.9h-5.8z"/><path transform="rotate(-14.373 334.767 114.26)" class="st6" d="M331.9 113.3h5.8v1.9h-5.8z"/><path transform="rotate(-14.373 331.922 116.952)" class="st6" d="M329 116h5.8v1.9H329z"/><path class="st3" d="M226.6 224.8l-17.7-10.2-17.6 10.2 17.6 10.2zm-55.6 1.8l-17.6-10.2-17.7 10.2 17.7 10.2zm-37.3-21.3l-17.6-10.2-17.6 10.2 17.6 10.2z"/><path class="st9" d="M153.4 226.6v-54.2l17.6-10.2v54.2z"/><path class="st10" fill="#ef602e" d="M171 162.2L153.4 152l-17.7 10.2 17.7 10.2z"/><path class="st6" d="M153.4 172.4l-17.7-10.2v54.2l17.7 10.2z"/><path class="st2" d="M153.4 226.6v-54.2l17.6-10.2v54.2z"/><path class="st4" d="M171 162.2L153.4 152l-17.7 10.2 17.7 10.2z"/><path class="st1" d="M190.8 248.5V218l17.6-10.2v30.5z"/><path class="st2" d="M190.8 218l-17.6-10.2v30.5l17.6 10.2z"/><path class="st4" d="M208.4 207.8l-17.6-10.1-17.6 10.1 17.6 10.2zm-92.3-2.5v-74.7l17.6-10.1v74.6z"/><path class="st2" d="M116.1 130.6l-17.6-10.1v74.6l17.6 10.2z"/><path class="st6" d="M133.7 120.5l-17.6-10.1-17.6 10.1 17.6 10.1zm-28.1 42.2s-2.9-1.5-4.7.8c-1.8 2.1-4.3 7.3-4.4 10.8-.1 3.4 2.8 3.2 4.4 2.5 1.7-.9 6.6-7.9 6.9-9.3.3-1.4-.3-3.3-.9-3.6-.3-.6-1.3-1.2-1.3-1.2z"/><path class="st4" d="M106.2 162l.1 3c0 .6-.3 1.3-.9 1.6-.5.3-1.3.5-2.3.3-2.1-.3-2.4-1-2.6-4 .1-3 5.7-.9 5.7-.9z"/><path class="st6" d="M95 156.9s-2.9-1.5-4.7.8c-1.8 2.1-4.3 7.3-4.4 10.8-.1 3.4 2.8 3.2 4.4 2.5 1.7-.9 6.6-7.9 6.9-9.3.3-1.4-.3-3.3-.9-3.6-.3-.6-1.3-1.2-1.3-1.2z"/><path class="st4" d="M95.6 156.2l.1 3c0 .6-.3 1.3-.9 1.6-.5.3-1.3.5-2.3.3-2.1-.3-2.4-1-2.6-4 0-3 5.7-.9 5.7-.9z"/><path class="st1" d="M121.6 100.8c-.9-14-15.1 2-15.1 2l-9.8 9.5-8.8 9.7c-1.7 1.9-2.6 4.4-2.1 7l3.5 27.1c.2 1.4 1.3 2.4 2.7 2.4.4 0 .9 0 1.3-.1 3.2-.5 2.9-3.5 2.9-3.5l-.6-25.4 18.6-11.2c-.2.1 8.2-3.4 7.4-17.5z"/><path class="st1" d="M132.2 106.2c-.9-14-15.1 2-15.1 2l-9.8 9.5-8.8 9.7c-1.7 1.9-2.6 4.4-2.1 7l3.5 27.1c.2 1.4 1.3 2.4 2.7 2.4.4 0 .9 0 1.3-.1 3.2-.5 2.9-3.5 2.9-3.5l-.6-25.4 18.6-11.2c-.2.1 8.3-3.5 7.4-17.5z"/><path class="st6" d="M123.7 61.3c10.8 4.5 10.6 10.9 10.6 10.9s-2.1 23.5-1.4 39.3c.3 6.5-34.9 7.1-29.6-10.4 6.2-20.6 3.9-37.3 6.8-39.9 2.9-2.7 10.8-1.1 13.6.1z"/><ellipse transform="rotate(-75.558 121.83 65.54)" class="st11" cx="121.8" cy="65.5" rx="4.1" ry="5.6"/><path class="st5" d="M122.7 70.3c-.6 0-1.3-.1-1.9-.2-3.2-.9-5.4-3.5-4.7-6 .6-2.5 3.9-3.9 7.1-3 1.5.4 2.9 1.2 3.8 2.4 1 1.2 1.3 2.5 1 3.6-.7 1.9-2.9 3.2-5.3 3.2zm-1.8-8.5c-2 0-3.6 1-4.1 2.5-.5 1.9 1.3 4.1 4 4.7 2.7.6 5.4-.3 5.8-2.3.2-.9 0-1.9-.8-2.8-.8-1-1.9-1.6-3.2-1.9-.5-.1-1-.2-1.7-.2z"/><path class="st11" d="M119.4 60.7s.1.4-.1 3.9c-.1 1.1 3.8 2 4.7 1.1s.5-2 .9-5.7c.1-3.7-5.5.7-5.5.7z"/><path class="st12" d="M124.8 60.1s-1 3.4-5.6 4.7l.1-3.1 5.5-1.6z"/><circle transform="rotate(-14.495 119.64 53.43)" class="st11" cx="119.6" cy="53.4" r="8.4"/><path class="st12" d="M121.6 53.7s-4.6 1.9-7.8 2c-3.2 0-2.5-2.7-2.5-2.7l9.4-1.4.9 2.1z"/><path class="st13" d="M112.8 54.3s4-1.7 7.5-1c.9.2 1.6.6 2.1 1.3.2.2.4.4.6.4.6.1 1.6-2.5 2.9-2.5 1.2-.1 2 .8 1.1 2.4s-.6 3.3-.2 3.6c.4.3 5.3-3.4 1.1-11.9-4.3-8.5-15.1-3.9-16.8-2.1 0 0-1.8 1.5-3.2.2-.2-.1-1.8 12.1 4.9 9.6z"/><path class="st11" d="M128.3 89.4v6.3c0 .8-.3 1.4-.9 1.9l-13.1 11.9 1.5 2.3 17.3-12.5c.9-.5 1.3-1.5 1.4-2.5l1.2-11-7.4 3.6z"/><path class="st6" d="M133.5 69s4 6 5.5 21.7c0 0-6.8 2.1-10.6 1-3.9-1.4 5.1-22.7 5.1-22.7z"/><path class="st2" d="M127.6 76.5s-1.5 8.3-1.6 12.2c0 1.1.6 2 1.6 2.4V76.5z"/><path class="st6" d="M124.2 117.8l-2.9-.4-18.7-10.7c-.6-.3-1.6-.3-2.4.1L87 114.3l-1.7-.2v1.7c0 .2.1.4.4.6l21.1 12.2c.6.3 1.6.3 2.4-.1l14.4-8.3c.4-.2.5-.5.5-.8.1.2.1-1.6.1-1.6z"/><path class="st2" d="M110.2 110.9l-1.3-.8H94.3l-7.2 4.2-1.7-.2v1.7c0 .2.1.4.4.6l21.1 12.2c.3.2.8.2 1.2.2l2.1-17.9z"/><path class="st6" d="M86.2 114.2l-.8-.1v1.7c0 .2.1.4.4.6l.3.2c.1.1.1-2.4.1-2.4z"/><path class="st5" d="M107.1 128.7c.5.2 1.4.2 1.9-.1v-3h-1.9v3.1z"/><path class="st5" d="M106.9 126.9l-21.1-12.2c-.6-.3-.5-1 .2-1.4l14.4-8.3c.6-.4 1.7-.4 2.4-.1l21.1 12.2c.6.3.5 1-.2 1.4l-14.4 8.3c-.7.4-1.8.4-2.4.1z"/><path class="st4" d="M106.6 125.1L89 115c-.5-.3-.4-.8.1-1.1l7.7-4.3c.5-.3 1.4-.3 1.9-.1l17.6 10.1c.5.3.4.8-.1 1.1l-7.7 4.3c-.5.3-1.4.3-1.9.1z"/><path class="st11" d="M101.2 104.7l-.2 1.5c-.2 1.3-.1 2.5.1 3.8l.2 1.3c.1.8.8 1.3 1.4 1.4.5.1 1.1-.3 1.2-.9l.3-3.1s.8 1.1 1.2 1.1c.4 0-.4-3.1-1.3-4.9-.9-1.9-2.9-.2-2.9-.2z"/><path class="st11" d="M108.3 81.5L106 86c-.5 1.1-.9 2.3-1 3.4l-1 15.3-3-.1-1.4-17.2c0-.5 0-1.1.1-1.6l1.5-8.7 7.1 4.4z"/><path class="st1" d="M106.2 128.1l-1.7-2.4L86 115c-.6-.3-1.1-1.3-1.1-2V97.7l-1.1-1.4 1-.5c.2-.1.4-.1.8 0l21.1 12.2c.6.3 1.1 1.3 1.1 2v16.6c0 .4-.1.8-.4.9l-1.2.6z"/><path class="st2" d="M93.4 119.3l-1.3-.8-7.3-12.7v-8.3l-1.1-1.4 1-.5c.2-.1.4-.1.8 0l21.1 12.2c.3.2.6.5.8 1l-14 10.5z"/><path class="st6" d="M84.2 96.9l-.4-.6 1-.5c.2-.1.4-.1.8 0l.3.2-1.7.9z"/><path class="st3" d="M106.7 108.1c.4.4.9 1.1.9 1.8l-2 1.2-1-1.7 2.1-1.3z"/><path class="st6" d="M105.5 108.6L84.4 96.3c-.6-.3-1.1 0-1.1.9v16.6c0 .8.4 1.7 1.1 2l21.1 12.2c.6.3 1.1 0 1.1-.9v-16.6c0-.7-.5-1.6-1.1-1.9z"/><path class="st11" d="M115.9 111.8l-.3.8c-.4.9-1 1.5-1.7 1.9l-2.1 1.3c-.6.4-1.5.4-2.1 0h-.1c-.6-.4-.8-1.4-.2-1.9l2.1-2.3s-1.2 1-1.6.5c-.2-.3 1.2-1.6 2.3-1.7 1.1 0 2.1-1 2.1-1l1.6 2.4z"/><path class="st6" d="M110.3 61s-8 8.7-11.3 16.7c0 0 2.8 4.9 9.4 6.9 6.9 2 1.9-23.6 1.9-23.6z"/><path class="st2" d="M107 84.1l1.3-12.5-3.1 11.8c.6.2 1.2.5 1.8.7z"/><path class="st5" d="M116.3 59.2l-2.1-.6s1.1 1.6 2.6 2c1.5.4 1.7-.9 1.7-.9l-2.2-.5z"/><path class="st0" d="M97.5 281.2c-14.5-8.4-38-8.4-52.6 0-14.5 8.4-14.5 22 0 30.4 14.5 8.4 38 8.4 52.6 0 14.4-8.4 14.4-22 0-30.4zm-14.3 22.1c-6.6 3.9-17.5 3.9-24.1 0-6.6-3.9-6.6-10.1 0-13.9 6.6-3.9 17.5-3.9 24.1 0 6.7 3.8 6.7 10.1 0 13.9z"/><path class="st1" d="M39.4 276.3l13.2.2c1-1.3 2.4-2.5 4.2-3.5 7.3-4.2 18.8-4.5 26.7-1l7.8-7.4 12.1.2-1.8-1.2c-16.8-9.8-44.2-9.8-61 0-3.1 1.8-5.6 3.8-7.6 5.9l6.4 6.8z"/><path class="st6" d="M103.6 245.5v19.2l-12.2-.1v-19.3z"/><path class="st1" d="M83.5 252.7V272l7.9-7.4v-19.3zm-30.8 4.5v19.2l17.4-14.2 13.4 9.7v-19.2l-12.3-6s-17.1 5.3-17.9 5.5c-.9.2-.6 5-.6 5z"/><path class="st1" d="M39.4 257v19.3l13.3.2v-19.3z"/><path class="st6" d="M33.1 250.2v19.3l6.3 6.8V257z"/><path class="st4" d="M39.4 257l13.2.2c1-1.3 2.4-2.5 4.2-3.5 7.3-4.2 18.8-4.5 26.7-1l7.8-7.4 12.1.2-1.8-1.2c-16.8-9.8-44.2-9.8-61 0-3.1 1.8-5.6 3.8-7.6 5.9l6.4 6.8z"/><path class="st6" d="M87.5 255.1v17.7L99 270s-.6-10.3-1-10.6c-.2-.3-10.5-4.3-10.5-4.3z"/><path class="st1" d="M78.9 272.8V292l1.3 1.3 8-4.6s-1.3-14.7-1.4-15c-.2-.3-7.9-.9-7.9-.9z"/><path class="st2" d="M94.4 267.8l-7 6.5c5.8 4.6 5 11-2 15.1-1.9 1.2-4.2 1.9-6.6 2.6l7.2 7.6-6.3 6c8-1 15.8-3.2 22-6.8 14.5-8.4 16.5-21.1 6.1-30.8l-13.4-.2z"/><path class="st2" d="M79.6 286.4v19.2l15.8-6 18.9-18-.1-20.5-20 15.8z"/><path class="st4" d="M94.4 248.6l-7 6.5c5.8 4.6 5 11-2 15.1-1.9 1.2-4.2 1.9-6.6 2.6l7.2 7.6-6.3 6c8-1 15.8-3.2 22-6.8 14.5-8.4 16.5-21.1 6.1-30.8l-13.4-.2z"/><path class="st2" d="M79.6 299.6l-6.3-6.8c-5.9.3-11.9-.8-16.4-3.3-4.6-2.7-6.5-6.3-5.8-9.9l-15-.2-5.8-6.1c-5 8.7-1.6 18.7 10.4 25.5 8.8 5 20.5 7.5 32 7.3l6.9-6.5z"/><path class="st2" d="M72.7 286.9v19.2l-44.6-24.8v-19.2l6.5 2.6z"/><path class="st1" d="M79.6 280.4v19.2l-6.9 6.5v-19.2z"/><path class="st6" d="M79.6 280.4l-6.3-6.8c-5.9.3-11.9-.8-16.4-3.3-4.6-2.7-6.5-6.3-5.8-9.9l-15-.2-5.8-6.1c-5 8.7-1.6 18.7 10.4 25.5 8.8 5 20.5 7.5 32 7.3l6.9-6.5zm26.1-260.5l1.2-1.9s1 .5 2 .2c.9-.2 1.5-1 2.1-2.3 2-4.3 5.8-4.6 7.5-4.2l-.5 2.1.3-1.1-.2 1.1c-.3-.1-3.2-.6-4.9 2.9-.9 1.8-2 3-3.5 3.4-2.2.7-3.9-.1-4-.2z"/><path class="st4" d="M69.8 94c-5.7 0-10.4-4.6-10.4-10.4 0-5.7 4.6-10.4 10.4-10.4 5.7 0 10.4 4.6 10.4 10.4-.1 5.8-4.7 10.4-10.4 10.4zm0-18.5c-4.5 0-8 3.6-8 8 0 4.5 3.6 8 8 8s8-3.6 8-8c0-4.3-3.6-8-8-8z"/><path class="st6" d="M9 236.9c-4.1 0-7.3-3.3-7.3-7.3 0-4.1 3.3-7.3 7.3-7.3 4.1 0 7.3 3.3 7.3 7.3.1 4-3.3 7.3-7.3 7.3zm0-12.4c-2.8 0-5 2.3-5 5 0 2.8 2.3 5 5 5s5-2.3 5-5c0-2.8-2.1-5-5-5zm45.6-70l-4.9-10.1 10.1-4.9 4.9 10.1-10.1 4.9zm-2-9.1l3 6.1 6.1-3-3-6.1-6.1 3z"/><path transform="rotate(-26.182 303.022 46.905)" class="st6" d="M300.4 44.3h5.1v5.1h-5.1z"/><path class="st14" d="M45.5 169.7l-22.6-13.1c-.4-.2-.9-.3-1.2-.1l-2.3 1.3s1 .3 1.5.5v16.5c0 1.4.9 2.9 1.8 3.4l21.8 12.5v1.9l2.3-1.3c.3-.2.6-.8.6-1.5V173c0-1.2-.9-2.8-1.9-3.3z"/><path class="st13" d="M43.3 192.6l-22.6-13.1c-1-.5-1.8-2.1-1.8-3.4v-16.8c0-1.4.9-1.9 1.8-1.4L43.3 171c1 .5 1.8 2.1 1.8 3.4v16.8c0 1.4-.7 2.1-1.8 1.4z"/><path class="st5" d="M28.3 173.8c0 1-.6 1.4-1.5.9-.9-.5-1.5-1.7-1.5-2.7s.6-1.4 1.5-.9c.7.5 1.5 1.7 1.5 2.7zm4.6 2.6c0 1-.6 1.4-1.5.9-.9-.5-1.5-1.7-1.5-2.7s.6-1.4 1.5-.9 1.5 1.8 1.5 2.7zm4.6 2.7c0 1-.6 1.4-1.5.9-.9-.5-1.5-1.7-1.5-2.7s.6-1.4 1.5-.9c.9.6 1.5 1.8 1.5 2.7z"/><path class="st6" d="M262.9 14.8L240.3 1.7c-.4-.2-.9-.3-1.2-.1l-2.3 1.3s1 .3 1.5.5V20c0 1.4.9 2.9 1.8 3.4l21.7 12.5v1.9l2.3-1.3c.3-.2.6-.8.6-1.5V18.2c.1-1.2-.7-2.8-1.8-3.4z"/><path class="st4" d="M260.7 37.8l-22.6-13.1c-1-.5-1.8-2.1-1.8-3.4V4.4c0-1.4.9-1.9 1.8-1.4l22.6 13.1c1 .5 1.8 2.1 1.8 3.4v16.8c0 1.5-.7 2.1-1.8 1.5z"/><path class="st5" d="M245.7 18.9c0 1-.6 1.4-1.5.9-.9-.5-1.5-1.7-1.5-2.7 0-1 .6-1.4 1.5-.9.8.5 1.5 1.7 1.5 2.7zm4.6 2.7c0 1-.6 1.4-1.5.9-.9-.5-1.5-1.7-1.5-2.7s.6-1.4 1.5-.9c.8.5 1.5 1.7 1.5 2.7zm4.7 2.7c0 1-.6 1.4-1.5.9-.9-.5-1.5-1.7-1.5-2.7 0-1 .6-1.4 1.5-.9.8.5 1.5 1.7 1.5 2.7z"/><path class="st0" d="M261 298.3l13.3-7.7 13.3 7.7-13.3 7.6zm28.2-16.5l13.3-7.8 13.3 7.8-13.3 7.6zm28.2-16.2l13.3-7.6 13.3 7.6-13.3 7.7z"/><path class="st9" d="M302.5 281.8v-41l-13.3-7.7V274z"/><path class="st14" d="M302.5 240.8l13.3-7.7V274l-13.3 7.8z"/><path class="st13" d="M302.5 281.8v-41l-13.3-7.7V274zm-28.2 16.5v-23.1l-13.3-7.7v23.1z"/><path class="st14" d="M274.3 275.2l13.3-7.7v23.1l-13.3 7.7z"/><path class="st13" d="M261 267.5l13.3-7.6 13.3 7.6-13.3 7.7zm69.7-1.9v-56.3l-13.3-7.8V258z"/><path class="st14" d="M330.7 209.3l13.3-7.8V258l-13.3 7.6z"/><path class="st13" d="M317.4 201.5l13.3-7.6 13.3 7.6-13.3 7.8zm-28.2 31.6l13.3-7.7 13.3 7.7-13.3 7.7z"/></svg>